<?xml version="1.0" standalone="no"?>
<svg xmlns:xlink="http://www.w3.org/1999/xlink" id="wave" style="transform:rotate(0deg); transition: 0.3s" viewBox="0 0 1440 490" version="1.1" xmlns="http://www.w3.org/2000/svg"><defs><linearGradient id="sw-gradient-0" x1="0" x2="0" y1="1" y2="0"><stop stop-color="rgba(62, 93.498, 243, 1)" offset="0%"/><stop stop-color="rgba(255, 11, 251.848, 1)" offset="100%"/></linearGradient></defs><path style="transform:translate(0, 0px); opacity:1" fill="url(#sw-gradient-0)" d="M0,0L30,24.5C60,49,120,98,180,130.7C240,163,300,180,360,163.3C420,147,480,98,540,138.8C600,180,660,310,720,351.2C780,392,840,343,900,334.8C960,327,1020,359,1080,367.5C1140,376,1200,359,1260,310.3C1320,261,1380,180,1440,138.8C1500,98,1560,98,1620,81.7C1680,65,1740,33,1800,40.8C1860,49,1920,98,1980,98C2040,98,2100,49,2160,98C2220,147,2280,294,2340,302.2C2400,310,2460,180,2520,138.8C2580,98,2640,147,2700,212.3C2760,278,2820,359,2880,375.7C2940,392,3000,343,3060,326.7C3120,310,3180,327,3240,310.3C3300,294,3360,245,3420,187.8C3480,131,3540,65,3600,32.7C3660,0,3720,0,3780,57.2C3840,114,3900,229,3960,253.2C4020,278,4080,212,4140,163.3C4200,114,4260,82,4290,65.3L4320,49L4320,490L4290,490C4260,490,4200,490,4140,490C4080,490,4020,490,3960,490C3900,490,3840,490,3780,490C3720,490,3660,490,3600,490C3540,490,3480,490,3420,490C3360,490,3300,490,3240,490C3180,490,3120,490,3060,490C3000,490,2940,490,2880,490C2820,490,2760,490,2700,490C2640,490,2580,490,2520,490C2460,490,2400,490,2340,490C2280,490,2220,490,2160,490C2100,490,2040,490,1980,490C1920,490,1860,490,1800,490C1740,490,1680,490,1620,490C1560,490,1500,490,1440,490C1380,490,1320,490,1260,490C1200,490,1140,490,1080,490C1020,490,960,490,900,490C840,490,780,490,720,490C660,490,600,490,540,490C480,490,420,490,360,490C300,490,240,490,180,490C120,490,60,490,30,490L0,490Z"/></svg>